<?xml version="1.0" encoding="UTF-8" standalone="no"?>
<svg width="192px" height="27px" viewBox="0 0 192 27" version="1.1" xmlns="http://www.w3.org/2000/svg" xmlns:xlink="http://www.w3.org/1999/xlink">
    <!-- Generator: Sketch 3.8.3 (29802) - http://www.bohemiancoding.com/sketch -->
    <title>emil cardell</title>
    <desc>Created with Sketch.</desc>
    <defs></defs>
    <g id="Page-1" stroke="none" stroke-width="1" fill="none" fill-rule="evenodd">
        <g id="iPhone-6" transform="translate(-91.000000, -332.000000)" fill="#FFFFFF">
            <path d="M107.9,349.612 C107.864,344.608 104.552,340.936 99.8,340.936 C94.724,340.936 91.16,344.788 91.16,349.684 C91.16,354.616 94.724,358.468 99.8,358.468 C103.472,358.468 106.388,356.632 107.36,353.788 L104.696,353.788 C103.94,355.372 102.176,356.344 99.872,356.344 C96.272,356.344 94.004,353.824 93.644,350.656 L107.72,350.656 L107.72,350.584 L107.864,350.656 C107.9,350.332 107.9,349.972 107.9,349.612 L107.9,349.612 Z M99.728,343.06 C103.004,343.06 105.128,345.4 105.416,348.748 L93.644,348.748 C94.004,345.616 96.236,343.06 99.728,343.06 L99.728,343.06 Z M133.1,340.828 C130.112,340.828 128.06,341.944 126.44,343.924 C125.252,341.944 123.2,340.828 120.716,340.828 C118.232,340.828 116.54,341.728 115.172,343.24 L115.172,341.368 L112.724,341.368 L112.724,358 L115.172,358 L115.172,346.12 C116.504,344.068 118.34,343.096 120.284,343.096 C123.272,343.096 125.072,345.076 125.072,348.532 L125.072,358 L127.556,358 L127.556,348.424 C127.556,347.668 127.484,346.948 127.34,346.3 C128.672,344.068 130.616,343.096 132.668,343.096 C135.62,343.096 137.42,345.076 137.42,348.532 L137.42,358 L139.868,358 L139.868,348.424 C139.868,343.744 137.06,340.828 133.1,340.828 L133.1,340.828 Z M147.032,336.724 C147.968,336.724 148.724,336.04 148.724,335.068 C148.724,334.132 147.968,333.412 147.032,333.412 C146.06,333.412 145.34,334.132 145.34,335.068 C145.34,336.04 146.06,336.724 147.032,336.724 L147.032,336.724 Z M148.292,341.368 L145.808,341.368 L145.808,358 L148.292,358 L148.292,341.368 Z M157.292,332.44 L154.844,332.44 L154.844,358 L157.292,358 L157.292,332.44 Z M180.908,356.2 C177.164,356.2 174.716,353.284 174.716,349.684 C174.716,346.12 177.164,343.204 180.908,343.204 C183.608,343.204 185.624,344.68 186.164,346.948 L188.72,346.948 C188.036,343.384 184.904,340.936 180.908,340.936 C175.868,340.936 172.232,344.788 172.232,349.684 C172.232,354.616 175.868,358.468 180.908,358.468 C184.904,358.468 188.036,356.02 188.72,352.456 L186.164,352.456 C185.624,354.724 183.608,356.2 180.908,356.2 L180.908,356.2 Z M209.744,341.368 L207.26,341.368 L207.26,343.24 C205.748,341.8 203.732,340.936 201.248,340.936 C196.496,340.936 192.644,344.824 192.644,349.684 C192.644,354.58 196.496,358.468 201.248,358.468 C203.732,358.468 205.748,357.604 207.26,356.164 L207.26,358 L209.744,358 L209.744,341.368 Z M201.572,356.308 C197.9,356.308 195.128,353.284 195.128,349.684 C195.128,346.12 197.9,343.096 201.572,343.096 C203.84,343.096 205.856,344.104 207.26,346.12 L207.26,353.284 C205.856,355.3 203.84,356.308 201.572,356.308 L201.572,356.308 Z M218.24,341.368 L215.792,341.368 L215.792,358 L218.24,358 L218.24,347.128 C219.716,344.716 222.02,343.348 224.756,343.276 L224.756,340.936 C222.056,340.936 219.788,342.16 218.24,344.248 L218.24,341.368 Z M244.304,332.44 L241.82,332.44 L241.82,343.204 C240.308,341.764 238.292,340.936 235.808,340.936 C231.056,340.936 227.204,344.824 227.204,349.684 C227.204,354.544 231.056,358.432 235.808,358.432 C238.292,358.432 240.308,357.604 241.82,356.164 L241.82,358 L244.304,358 L244.304,332.44 Z M236.132,356.272 C232.46,356.272 229.688,353.248 229.688,349.684 C229.688,346.084 232.46,343.06 236.132,343.06 C238.4,343.06 240.416,344.068 241.82,346.12 L241.82,353.248 C240.416,355.264 238.4,356.272 236.132,356.272 L236.132,356.272 Z M266.156,349.612 C266.12,344.608 262.808,340.936 258.056,340.936 C252.98,340.936 249.416,344.788 249.416,349.684 C249.416,354.616 252.98,358.468 258.056,358.468 C261.728,358.468 264.644,356.632 265.616,353.788 L262.952,353.788 C262.196,355.372 260.432,356.344 258.128,356.344 C254.528,356.344 252.26,353.824 251.9,350.656 L265.976,350.656 L265.976,350.584 L266.12,350.656 C266.156,350.332 266.156,349.972 266.156,349.612 L266.156,349.612 Z M257.984,343.06 C261.26,343.06 263.384,345.4 263.672,348.748 L251.9,348.748 C252.26,345.616 254.492,343.06 257.984,343.06 L257.984,343.06 Z M273.608,332.44 L271.16,332.44 L271.16,358 L273.608,358 L273.608,332.44 Z M282.104,332.44 L279.656,332.44 L279.656,358 L282.104,358 L282.104,332.44 Z" id="emil-cardell"></path>
        </g>
    </g>
</svg>