<?xml version="1.0" encoding="UTF-8" standalone="no"?>
<svg width="192px" height="27px" viewBox="0 0 192 27" version="1.1" xmlns="http://www.w3.org/2000/svg" xmlns:xlink="http://www.w3.org/1999/xlink">
    <!-- Generator: Sketch 3.8.3 (29802) - http://www.bohemiancoding.com/sketch -->
    <title>emil cardell</title>
    <desc>Created with Sketch.</desc>
    <defs></defs>
    <g id="Page-1" stroke="none" stroke-width="1" fill="none" fill-rule="evenodd">
        <g id="iPhone-6-Copy" transform="translate(-92.000000, -52.000000)" fill="#2F3E41">
            <path d="M108.9,69.612 C108.864,64.608 105.552,60.936 100.8,60.936 C95.724,60.936 92.16,64.788 92.16,69.684 C92.16,74.616 95.724,78.468 100.8,78.468 C104.472,78.468 107.388,76.632 108.36,73.788 L105.696,73.788 C104.94,75.372 103.176,76.344 100.872,76.344 C97.272,76.344 95.004,73.824 94.644,70.656 L108.72,70.656 L108.72,70.584 L108.864,70.656 C108.9,70.332 108.9,69.972 108.9,69.612 L108.9,69.612 Z M100.728,63.06 C104.004,63.06 106.128,65.4 106.416,68.748 L94.644,68.748 C95.004,65.616 97.236,63.06 100.728,63.06 L100.728,63.06 Z M134.1,60.828 C131.112,60.828 129.06,61.944 127.44,63.924 C126.252,61.944 124.2,60.828 121.716,60.828 C119.232,60.828 117.54,61.728 116.172,63.24 L116.172,61.368 L113.724,61.368 L113.724,78 L116.172,78 L116.172,66.12 C117.504,64.068 119.34,63.096 121.284,63.096 C124.272,63.096 126.072,65.076 126.072,68.532 L126.072,78 L128.556,78 L128.556,68.424 C128.556,67.668 128.484,66.948 128.34,66.3 C129.672,64.068 131.616,63.096 133.668,63.096 C136.62,63.096 138.42,65.076 138.42,68.532 L138.42,78 L140.868,78 L140.868,68.424 C140.868,63.744 138.06,60.828 134.1,60.828 L134.1,60.828 Z M148.032,56.724 C148.968,56.724 149.724,56.04 149.724,55.068 C149.724,54.132 148.968,53.412 148.032,53.412 C147.06,53.412 146.34,54.132 146.34,55.068 C146.34,56.04 147.06,56.724 148.032,56.724 L148.032,56.724 Z M149.292,61.368 L146.808,61.368 L146.808,78 L149.292,78 L149.292,61.368 Z M158.292,52.44 L155.844,52.44 L155.844,78 L158.292,78 L158.292,52.44 Z M181.908,76.2 C178.164,76.2 175.716,73.284 175.716,69.684 C175.716,66.12 178.164,63.204 181.908,63.204 C184.608,63.204 186.624,64.68 187.164,66.948 L189.72,66.948 C189.036,63.384 185.904,60.936 181.908,60.936 C176.868,60.936 173.232,64.788 173.232,69.684 C173.232,74.616 176.868,78.468 181.908,78.468 C185.904,78.468 189.036,76.02 189.72,72.456 L187.164,72.456 C186.624,74.724 184.608,76.2 181.908,76.2 L181.908,76.2 Z M210.744,61.368 L208.26,61.368 L208.26,63.24 C206.748,61.8 204.732,60.936 202.248,60.936 C197.496,60.936 193.644,64.824 193.644,69.684 C193.644,74.58 197.496,78.468 202.248,78.468 C204.732,78.468 206.748,77.604 208.26,76.164 L208.26,78 L210.744,78 L210.744,61.368 Z M202.572,76.308 C198.9,76.308 196.128,73.284 196.128,69.684 C196.128,66.12 198.9,63.096 202.572,63.096 C204.84,63.096 206.856,64.104 208.26,66.12 L208.26,73.284 C206.856,75.3 204.84,76.308 202.572,76.308 L202.572,76.308 Z M219.24,61.368 L216.792,61.368 L216.792,78 L219.24,78 L219.24,67.128 C220.716,64.716 223.02,63.348 225.756,63.276 L225.756,60.936 C223.056,60.936 220.788,62.16 219.24,64.248 L219.24,61.368 Z M245.304,52.44 L242.82,52.44 L242.82,63.204 C241.308,61.764 239.292,60.936 236.808,60.936 C232.056,60.936 228.204,64.824 228.204,69.684 C228.204,74.544 232.056,78.432 236.808,78.432 C239.292,78.432 241.308,77.604 242.82,76.164 L242.82,78 L245.304,78 L245.304,52.44 Z M237.132,76.272 C233.46,76.272 230.688,73.248 230.688,69.684 C230.688,66.084 233.46,63.06 237.132,63.06 C239.4,63.06 241.416,64.068 242.82,66.12 L242.82,73.248 C241.416,75.264 239.4,76.272 237.132,76.272 L237.132,76.272 Z M267.156,69.612 C267.12,64.608 263.808,60.936 259.056,60.936 C253.98,60.936 250.416,64.788 250.416,69.684 C250.416,74.616 253.98,78.468 259.056,78.468 C262.728,78.468 265.644,76.632 266.616,73.788 L263.952,73.788 C263.196,75.372 261.432,76.344 259.128,76.344 C255.528,76.344 253.26,73.824 252.9,70.656 L266.976,70.656 L266.976,70.584 L267.12,70.656 C267.156,70.332 267.156,69.972 267.156,69.612 L267.156,69.612 Z M258.984,63.06 C262.26,63.06 264.384,65.4 264.672,68.748 L252.9,68.748 C253.26,65.616 255.492,63.06 258.984,63.06 L258.984,63.06 Z M274.608,52.44 L272.16,52.44 L272.16,78 L274.608,78 L274.608,52.44 Z M283.104,52.44 L280.656,52.44 L280.656,78 L283.104,78 L283.104,52.44 Z" id="emil-cardell"></path>
        </g>
    </g>
</svg>